<svg width="35" height="35" viewBox="0 0 35 35" fill="none" xmlns="http://www.w3.org/2000/svg">
<path d="M13.125 2.91666C7.50433 2.91666 2.91663 7.50436 2.91663 13.125C2.91663 18.7456 7.50433 23.3333 13.125 23.3333C15.6741 23.3333 18.0031 22.3825 19.7957 20.8268L20.4166 21.4477V23.3333L29.1666 32.0833L32.0833 29.1667L23.3333 20.4167H21.4477L20.8268 19.7957C22.3825 18.0031 23.3333 15.6742 23.3333 13.125C23.3333 7.50436 18.7456 2.91666 13.125 2.91666ZM13.125 5.83332C17.1693 5.83332 20.4166 9.08064 20.4166 13.125C20.4166 17.1693 17.1693 20.4167 13.125 20.4167C9.08061 20.4167 5.83329 17.1693 5.83329 13.125C5.83329 9.08064 9.08061 5.83332 13.125 5.83332Z" fill="#636363"/>
</svg>
