<svg width="260" height="112" viewBox="0 0 260 112" fill="none" xmlns="http://www.w3.org/2000/svg">
<path d="M48.6466 60.4091L52.1966 70.8515C54.1173 76.4982 55.8321 81.0142 56.0556 81.0142C56.0593 81.0142 56.0626 81.0126 56.0655 81.0101C56.3111 80.7927 63.2595 60.5809 63.2595 60.5809H76.7263L60.4793 108H51.1193C51.1193 108 41.1288 79.0977 41.1697 78.9877L30.741 107.636H21.4752L5.43297 60.4091L18.8342 60.4177C18.8342 60.4177 26.1753 81.2611 26.2731 81.2611C26.2735 81.2611 26.2735 81.2607 26.2739 81.2603L33.599 60.4087H48.6466V60.4091ZM0.857788 57.1251L2.33222 61.466L18.3744 108.693L19.1299 110.917H21.4756H30.7414H33.0335L33.8189 108.76L41.06 88.8683C41.684 90.6868 42.3583 92.6468 43.0327 94.6052C45.5258 101.846 48.0243 109.074 48.0243 109.074L48.7875 111.281H51.1197H60.4797H62.8185L63.5776 109.065L79.8246 61.6464L81.3137 57.2998H76.7263H63.2595H60.9232L60.1624 59.5129C58.9447 63.0544 57.3286 67.7283 55.9467 71.6841C55.7383 71.084 55.5213 70.4533 55.2969 69.7929L51.7474 59.3509L50.9916 57.1276H48.6466H33.5994H31.2795L30.5093 59.3197L26.2293 71.5032C24.8155 67.5224 23.1765 62.8834 21.9235 59.3259L21.153 57.1382L18.8367 57.1366L5.43543 57.128L0.857788 57.1251Z" fill="#FFE81F"/>
<path d="M256.049 60.2249L256.018 72.654C256.018 72.654 242.653 72.6093 235.857 72.6093C233.597 72.6093 232.063 72.6147 231.991 72.6278C230.82 72.8415 230.074 75.3355 230.406 76.4301C230.569 76.9838 231.794 78.7925 233.121 80.4536C234.443 82.115 236.617 84.8342 237.944 86.4944C241.35 90.752 241.817 91.5924 242.132 94.0372C242.644 98.0077 240.769 102.305 237.289 105.14C233.801 107.982 233.954 108.002 208.061 108.002C207.686 108.002 207.31 108.002 206.924 108.002C191.177 107.998 182.848 107.867 181.636 107.596C179.482 107.108 176.051 104.303 166.982 95.5875C163.72 92.4557 160.714 89.7136 160.559 89.7127C160.555 89.7127 160.553 89.7152 160.553 89.7193L160.446 108.003L145.747 107.937L145.657 60.7803H164.193H178.438C188.318 61.1375 195.004 70.9967 193.673 77.284C193.37 78.7109 192.601 80.7788 191.962 81.8775C190.647 84.1333 187.302 87.0288 184.587 88.2719C183.584 88.7264 182.765 89.2554 182.765 89.4441C182.765 90.1454 186.066 93.4015 187.302 93.9187C188.358 94.3612 191.433 94.4596 204.994 94.4596C206.584 94.4596 208.028 94.4605 209.338 94.4605C222.97 94.4605 222.284 94.362 223.337 92.1059C224.074 90.5351 223.513 89.5959 218.326 83.7432C211.754 77.193 212.442 74.0555 212.397 71.7382C212.303 68.9616 214.486 60.2262 225.832 60.2262L256.049 60.2249ZM167.989 82.0112C174.282 82.0112 175.559 81.9132 176.899 81.3304C181.419 79.3618 181.661 73.5465 177.325 70.9659C176.375 70.3995 175.154 70.306 168.333 70.2687L160.439 70.2273C160.504 70.2888 160.414 81.5347 160.414 81.5347C160.414 81.5347 162.392 82.0112 167.989 82.0112ZM259.332 56.9439H256.048H225.831C219.266 56.9439 215.384 59.5392 213.283 61.7166C209.865 65.2573 209.06 69.7158 209.122 71.8178C209.125 71.9929 209.123 72.1725 209.121 72.36C209.091 75.776 209.594 79.6431 215.942 85.9953C217.197 87.4111 219.297 89.7845 220.09 90.9641C218.355 91.1777 213.957 91.1777 209.337 91.1777H207.375L204.994 91.1769C196.844 91.1769 189.972 91.1535 188.564 90.8751C188.367 90.7463 188.09 90.5248 187.786 90.2607C190.602 88.5238 193.449 85.8316 194.79 83.5296C195.603 82.1298 196.5 79.7387 196.877 77.9649C197.712 74.0173 196.334 69.2553 193.192 65.2228C189.525 60.5182 184.19 57.7034 178.555 57.5L178.496 57.4975H178.437H164.192H145.656H142.374L142.38 60.7856L142.471 107.942L142.477 111.203L145.732 111.217L160.431 111.282L163.701 111.296L163.721 108.02L163.784 97.0673C164.084 97.3527 164.395 97.6492 164.713 97.9552C174.633 107.487 177.963 110.128 180.912 110.796C181.722 110.977 183.063 111.276 206.921 111.283H208.059C220.976 111.283 227.459 111.283 231.315 110.91C235.733 110.482 237.154 109.478 239.284 107.741L239.354 107.684C243.729 104.121 246.038 98.7304 245.38 93.616C244.95 90.2898 244.072 88.9081 240.498 84.4421L239.436 83.1133C238.191 81.5552 236.687 79.6735 235.679 78.407C234.866 77.3882 234.227 76.4839 233.842 75.8916C234.348 75.8904 235.005 75.8896 235.856 75.8896C242.569 75.8896 255.872 75.9339 256.006 75.9347L259.285 75.9454L259.293 72.661L259.324 60.2315L259.332 56.9439ZM163.71 78.6104C163.716 77.7815 163.721 76.8522 163.726 75.9212C163.73 75.1009 163.734 74.279 163.735 73.526L168.315 73.5498C170.948 73.5641 174.909 73.5859 175.681 73.8053C176.667 74.4045 177.216 75.331 177.157 76.2907C177.124 76.8091 176.877 77.7623 175.592 78.3213C174.876 78.633 173.733 78.7302 167.989 78.7302C166.167 78.7302 164.761 78.6773 163.71 78.6104Z" fill="#FFE81F"/>
<path d="M115.874 60.0317L132.371 107.574L118.929 107.636L116.697 100.496L92.6624 100.302L90.5415 107.451L77.2344 107.312L93.5222 60.0522L115.874 60.0317ZM105.064 67.0024C105.03 67.1389 102.958 72.8341 100.879 78.5288C98.7824 84.2707 96.6791 90.0125 96.65 90.0572C96.65 90.0577 96.6496 90.0577 96.65 90.0577C96.65 90.0577 96.65 90.0577 96.65 90.0572C96.7057 90.0408 104.149 90.0244 108.92 90.0244C111.153 90.0244 112.8 90.0281 112.831 90.0363C112.831 90.038 112.831 90.0384 112.831 90.0384C112.831 90.0384 112.831 90.038 112.831 90.0371C112.831 90.0371 112.831 90.0371 112.831 90.0363C112.747 89.8194 105.088 67.2796 105.064 67.0024C105.065 67.0007 105.065 66.9999 105.065 66.9999C105.064 66.9999 105.064 67.0007 105.064 67.0024ZM118.203 56.7486L115.872 56.7507L93.5198 56.7716L91.1876 56.7736L90.4264 58.9826L74.1385 106.242L72.6551 110.546L77.2008 110.593L90.5079 110.733L92.9781 110.759L93.6819 108.387L95.1011 103.604L114.285 103.758L115.804 108.617L116.526 110.93L118.945 110.919L132.387 110.858L136.971 110.836L135.465 106.5L118.969 58.9568L118.203 56.7486ZM101.365 86.7466C101.985 85.0532 102.821 82.7642 103.955 79.6558C104.311 78.6814 104.637 77.7893 104.935 76.9715C105.207 77.7737 105.502 78.6465 105.823 79.5955C106.088 80.3773 107.25 83.8076 108.247 86.7434C105.283 86.7434 103.051 86.7438 101.365 86.7466Z" fill="#FFE81F"/>
<path d="M121.434 3.28599V15.0158H97.9812V50.8903H83.9985V14.9871L56.6227 15.065C53.3225 15.065 52.8803 17.6981 52.8803 18.707C52.8803 19.9456 53.687 21.1842 58.1172 26.8031C60.9915 30.4533 63.6325 34.0953 63.9805 34.8909C65.8803 39.2712 63.4237 46.0958 58.9484 48.8683C55.7588 50.8423 56.3037 50.8907 32.6175 50.8907C31.3998 50.8907 30.1215 50.8907 28.772 50.8907H3.27559V37.7131H43.3607L44.544 36.8887C45.3424 36.3309 45.8051 35.564 45.9811 34.514C46.2268 33.0047 46.0999 32.8079 41.1496 27.2218C35.2986 20.6187 34.6803 19.4129 34.9833 15.1967C35.3273 10.3858 39.6101 3.39714 47.0948 3.39714L121.434 3.28599ZM124.71 0L121.429 0.00492203L47.0895 0.115657C42.8075 0.115657 38.8305 1.96864 35.8943 5.33338C33.5138 8.06159 31.9514 11.6613 31.7155 14.9621C31.3171 20.5034 32.5905 22.5057 38.6991 29.3996C40.472 31.3999 42.1577 33.3025 42.7203 34.1104C42.7113 34.1428 42.7031 34.1638 42.6982 34.1757C42.692 34.1806 42.6826 34.188 42.6695 34.197L42.3329 34.4316H3.27559H0V37.7126V50.8903V54.1713H3.27559H28.772H30.7934H32.6175C44.2958 54.1713 50.0601 54.1603 53.456 53.9109C57.3417 53.6258 58.5815 52.9582 60.4388 51.8028L60.6705 51.6588C66.5101 48.041 69.5195 39.4258 66.985 33.5826C66.203 31.7952 61.2515 25.4841 60.6894 24.7705C59.1351 22.7989 56.5695 19.5453 56.1633 18.6037C56.1731 18.5245 56.1924 18.4425 56.2128 18.3855C56.2804 18.3683 56.4098 18.3453 56.6227 18.3453L80.7229 18.2768V50.8894V54.1705H83.9985H97.9812H101.257V50.8894V18.2961H121.434H124.71V15.015V3.28517V0V0Z" fill="#FFE81F"/>
<path d="M159.538 3.667L175.989 51.3328L162.572 51.259L160.393 44.1185L136.466 44.0119L134.328 50.8898H120.665L136.936 3.667H159.538V3.667ZM140.371 33.8615L156.668 33.841C156.668 33.841 156.668 33.8414 156.668 33.8414C156.724 33.8414 148.748 10.3813 148.695 10.3649C148.637 10.3628 140.187 33.8615 140.371 33.8615ZM161.871 0.385925H159.538H136.936H134.602L133.84 2.59655L117.569 49.8198L116.069 54.1713H120.666H134.329H136.74L137.457 51.8651L138.874 47.304L157.967 47.3889L159.441 52.2179L160.145 54.5265L162.556 54.54L175.973 54.6139L180.599 54.6393L179.088 50.2607L162.636 2.59491L161.871 0.385925ZM144.922 30.5747C145.932 27.6927 147.339 23.7431 148.612 20.1934C149.819 23.7386 151.155 27.6763 152.129 30.5656L144.922 30.5747Z" fill="#FFE81F"/>
<path d="M205.743 3.667C216.357 3.667 223.722 3.81875 225.139 4.06483C228.414 4.63492 231.375 6.38619 233.594 9.07667C235.916 11.8902 236.448 13.2354 236.751 17.0907C237.185 22.5332 234.601 27.2292 229.504 30.2765C228.017 31.1665 226.49 32.0319 226.109 32.2041C225.524 32.4707 225.602 32.725 226.65 33.9554C227.325 34.747 228.496 35.8748 229.25 36.4613L230.625 37.5318L256.044 37.8968L256.293 50.8898H240.709C228.656 50.8898 224.798 50.7791 223.668 50.3977C221.977 49.8235 217.908 46.3702 209.636 38.4874L203.732 32.8604L203.794 50.8898H188.627V3.667H205.743ZM203.508 24.8996H211.563C219.4 24.8996 219.645 24.875 220.763 24.0343C222.762 22.5332 223.469 20.987 223.257 18.6123C223.04 16.1638 222.098 14.8883 219.735 13.8629C218.405 13.2805 217.123 13.1862 210.842 13.1862H203.508V24.8996V24.8996ZM205.743 0.385925H188.628H185.353V3.667V50.8898V54.1709H188.628H203.795H207.083L207.071 50.8784L207.035 40.5364L207.379 40.8641C217.609 50.6142 220.627 52.829 222.618 53.5049C224.146 54.0212 226.705 54.1709 240.711 54.1709H256.295H259.633L259.569 50.8267L259.32 37.8336L259.259 34.6617L256.093 34.6161L231.771 34.2671L231.261 33.8705C231.099 33.7438 230.902 33.5764 230.692 33.387C230.875 33.2787 231.042 33.179 231.186 33.0929C237.329 29.421 240.549 23.4929 240.018 16.8298C239.664 12.3352 238.863 10.3104 236.12 6.98662C233.424 3.71826 229.724 1.53266 225.701 0.83256C223.465 0.444163 212.237 0.385925 205.743 0.385925ZM206.784 16.4673H210.842C216.585 16.4673 217.723 16.5628 218.424 16.8696C219.755 17.4471 219.89 17.7272 219.994 18.9027C220.099 20.0707 219.954 20.5407 218.798 21.4094C218.76 21.4377 218.731 21.4598 218.706 21.4775C217.943 21.619 215.109 21.619 211.563 21.619H206.784L206.784 16.4673Z" fill="#FFE81F"/>
</svg>
